<svg class="icon" viewBox="0 0 1024 1024" xmlns="http://www.w3.org/2000/svg" width="250" height="250"><defs><style/></defs><path d="M714.667 298.667H352c-17.067 0-32-14.934-32-32s14.933-32 32-32h362.667c17.066 0 32 14.933 32 32s-14.934 32-32 32zm0 234.666H352c-17.067 0-32-14.933-32-32s14.933-32 32-32h362.667c17.066 0 32 14.934 32 32s-14.934 32-32 32zM586.667 768H352c-17.067 0-32-14.933-32-32s14.933-32 32-32h234.667c17.066 0 32 14.933 32 32s-14.934 32-32 32zM793.6 936.533H704v-49.066h89.6v-40.534H704V800h53.333L704 701.867h64l55.467 96 53.333-96h59.733L883.2 800h55.467v46.933h-85.334v40.534h85.334v49.066h-85.334v66.134H793.6v-66.134z"/><path d="M597.333 1002.667h-416c-64 0-117.333-53.334-117.333-117.334V138.667c0-64 53.333-117.334 117.333-117.334h661.334c64 0 117.333 53.334 117.333 117.334V576c0 17.067-14.933 32-32 32s-32-14.933-32-32V138.667c0-29.867-23.467-53.334-53.333-53.334H181.333C151.467 85.333 128 108.8 128 138.667v746.666c0 29.867 23.467 53.334 53.333 53.334h416c17.067 0 32 14.933 32 32s-14.933 32-32 32z"/></svg>