<svg class="icon" viewBox="0 0 1024 1024" xmlns="http://www.w3.org/2000/svg" width="300" height="300"><defs><style/></defs><path d="M93.696 484.864H488.96V101.376H93.696v383.488zm56.832-326.144h280.576v268.8H150.528v-268.8zm-56.832 768H488.96V543.744H93.696V926.72zm56.832-325.632h280.576v268.8H150.528v-268.8zM536.576 97.28v382.976H931.84V97.28H536.576zm337.92 326.144H593.92v-268.8h280.576v268.8zm-337.92 499.2H931.84V539.648H536.576v382.976zM593.92 596.48h280.576v268.8H593.92v-268.8z"/><path d="M306.176 206.336h-30.208v67.584h-64.512v28.672h64.512V371.2h30.208v-68.608h64.512V273.92h-64.512zm373.248 67.072H788.48v31.232H679.424zm-332.8 401.92H312.32l-11.264 23.04c-3.584 7.168-6.144 12.8-9.216 20.992h-.512c-3.072-7.168-6.144-13.312-10.24-20.992l-11.776-23.04h-34.816l37.376 61.952-38.912 63.488h34.816l10.752-22.528c4.608-8.704 7.68-15.36 10.752-22.528h.512c3.584 7.168 7.168 13.824 11.776 22.528l12.288 22.528h34.816l-39.936-64.512 37.888-60.928zm315.904 80.384h159.744v28.672H662.528zm0-64h159.744v28.672H662.528z"/></svg>