<svg class="icon" viewBox="0 0 1024 1024" xmlns="http://www.w3.org/2000/svg" width="280" height="280"><defs><style/></defs><path d="M895.354 64.205H127.982c-35.158 0-63.947 28.789-63.947 63.948v767.372c0 35.159 28.789 63.948 63.947 63.948h767.372c35.158 0 63.947-28.79 63.947-63.948V128.153c0-35.159-28.789-63.948-63.947-63.948zm0 831.32H127.982V128.153h767.372v767.372z"/><path d="M383.774 256.05h383.684v63.947H383.774V256.05zM255.878 256.05h63.948v63.947h-63.948V256.05zM383.774 383.946h383.684v63.946H383.774v-63.946zM255.878 383.946h63.948v63.946h-63.948v-63.946zM383.774 575.785h383.684v63.95H383.774v-63.95zM255.878 575.785h63.948v63.95h-63.948v-63.95zM383.774 703.683h383.684v63.945H383.774v-63.945zM255.878 703.683h63.948v63.945h-63.948v-63.945z"/></svg>