<?xml version="1.0" standalone="no"?><!DOCTYPE svg PUBLIC "-//W3C//DTD SVG 1.1//EN" "http://www.w3.org/Graphics/SVG/1.1/DTD/svg11.dtd"><svg t="1555407709930" class="icon" style="" viewBox="0 0 1024 1024" version="1.1" xmlns="http://www.w3.org/2000/svg" p-id="10143" xmlns:xlink="http://www.w3.org/1999/xlink" width="280" height="280"><defs><style type="text/css"></style></defs><path d="M895.353526 64.205301 127.982348 64.205301c-35.158754 0-63.947428 28.788673-63.947428 63.947428l0 767.372202c0 35.158754 28.788673 63.948451 63.947428 63.948451l767.371178 0c35.158754 0 63.947428-28.789697 63.947428-63.948451L959.300954 128.152728C959.300954 92.993974 930.512281 64.205301 895.353526 64.205301zM895.353526 895.52493 127.982348 895.52493 127.982348 128.152728l767.371178 0L895.353526 895.52493z" p-id="10144"></path><path d="M383.774105 256.04963l383.683543 0 0 63.947428-383.683543 0 0-63.947428Z" p-id="10145"></path><path d="M255.878227 256.04963l63.947428 0 0 63.947428-63.947428 0 0-63.947428Z" p-id="10146"></path><path d="M383.774105 383.945509l383.683543 0 0 63.946404-383.683543 0 0-63.946404Z" p-id="10147"></path><path d="M255.878227 383.945509l63.947428 0 0 63.946404-63.947428 0 0-63.946404Z" p-id="10148"></path><path d="M383.774105 575.784722l383.683543 0 0 63.949474-383.683543 0 0-63.949474Z" p-id="10149"></path><path d="M255.878227 575.784722l63.947428 0 0 63.949474-63.947428 0 0-63.949474Z" p-id="10150"></path><path d="M383.774105 703.682647l383.683543 0 0 63.945381-383.683543 0 0-63.945381Z" p-id="10151"></path><path d="M255.878227 703.682647l63.947428 0 0 63.945381-63.947428 0 0-63.945381Z" p-id="10152"></path></svg>